<?xml version="1.0" standalone="no"?>
<!DOCTYPE svg PUBLIC "-//W3C//DTD SVG 20010904//EN"
 "http://www.w3.org/TR/2001/REC-SVG-20010904/DTD/svg10.dtd">
<svg version="1.0" xmlns="http://www.w3.org/2000/svg"
 width="512.000000pt" height="512.000000pt" viewBox="0 0 512.000000 512.000000"
 preserveAspectRatio="xMidYMid meet">
<metadata>
Created by potrace 1.11, written by Peter Selinger 2001-2013
</metadata>
<g transform="translate(0.000000,512.000000) scale(0.100000,-0.100000)"
fill="#000000" stroke="none">
<path d="M2369 5116 c-2 -2 -35 -7 -74 -10 -38 -3 -81 -8 -95 -11 -40 -6 -142
-25 -174 -31 -16 -3 -64 -14 -105 -25 -262 -70 -416 -135 -696 -293 -50 -28
-182 -122 -272 -194 -325 -259 -611 -643 -765 -1027 -24 -60 -79 -214 -83
-235 -2 -8 -13 -49 -24 -90 -11 -41 -22 -86 -25 -100 -3 -14 -9 -50 -15 -80
-11 -59 -17 -97 -28 -200 -10 -84 -9 -457 0 -535 20 -155 33 -225 69 -365 192
-748 723 -1378 1428 -1695 197 -88 443 -163 635 -191 22 -3 51 -8 65 -10 119
-20 466 -26 610 -11 984 101 1828 766 2155 1698 20 57 38 111 41 119 25 99 53
212 58 240 3 19 8 46 11 59 2 14 7 47 11 75 3 28 8 62 10 76 9 49 12 456 4
525 -16 136 -20 161 -41 265 -174 871 -811 1605 -1654 1903 -84 30 -149 50
-200 63 -78 19 -155 37 -175 40 -66 11 -88 14 -120 19 -19 3 -53 7 -75 11 -44
6 -471 15 -476 10z m393 -899 c16 -3 47 -8 70 -12 64 -11 69 -12 118 -25 88
-22 185 -53 194 -62 6 -4 16 -8 24 -8 26 0 237 -108 327 -167 224 -148 391
-311 563 -550 29 -40 52 -74 52 -76 0 -2 22 -42 48 -88 61 -106 126 -257 158
-368 57 -196 63 -354 23 -611 -10 -65 -18 -85 -26 -63 -9 25 -101 145 -155
202 -131 139 -300 258 -514 365 -206 102 -400 175 -859 321 -563 180 -792 298
-897 464 -92 146 -58 379 75 509 84 82 234 150 377 172 55 8 371 6 422 -3z
m-1903 -1059 c7 -24 34 -83 59 -133 193 -374 586 -628 1287 -833 712 -208 957
-306 1106 -440 127 -115 169 -263 124 -437 -50 -189 -233 -331 -495 -382 -99
-19 -147 -22 -320 -18 -226 5 -250 7 -425 44 -653 138 -1203 616 -1405 1221
-52 158 -65 235 -64 405 0 112 6 198 19 270 19 103 27 143 35 165 5 14 19 60
31 103 12 42 25 77 29 77 4 0 12 -19 19 -42z"/>
</g>
</svg>
